<svg xmlns="http://www.w3.org/2000/svg" viewBox="0 0 124.11 108.09"><defs><style>.cls-1{fill:#ffffff;}</style></defs><title>heart</title><g id="Layer_2" data-name="Layer 2"><g id="Layer_1-2" data-name="Layer 1"><g id="heart"><path class="cls-1" d="M90.61,12a19.45,19.45,0,0,1,6.9,1.33c7.34,2.8,12.76,9.8,14.14,18.27,2.37,14.6-4.49,29.25-20.39,43.56A144.73,144.73,0,0,1,62,95a143.84,143.84,0,0,1-29.2-19.83C16.94,60.86,10.09,46.21,12.47,31.6c1.38-8.47,6.8-15.47,14.14-18.27A19.41,19.41,0,0,1,33.51,12c5.92,0,12.14,3.09,18.49,9.19a14.52,14.52,0,0,0,20.12,0C78.47,15.09,84.69,12,90.61,12m0-12c-7.91,0-17,3.17-26.8,12.54a2.54,2.54,0,0,1-3.5,0C50.56,3.17,41.42,0,33.51,0A31.38,31.38,0,0,0,22.33,2.12C10.63,6.58,2.64,17.32.63,29.68c-7.31,44.88,51.61,74.12,60.31,78.17a2.48,2.48,0,0,0,1.06.24,2.45,2.45,0,0,0,1.06-.24c8.71-4,67.74-33.28,60.43-78.17-2-12.36-10-23.1-21.71-27.56A31.28,31.28,0,0,0,90.61,0Z"/></g></g></g></svg>